<?xml version="1.0"?>
<svg xmlns="http://www.w3.org/2000/svg" xmlns:xlink="http://www.w3.org/1999/xlink" xmlns:svgjs="http://svgjs.com/svgjs" version="1.1" width="512" height="512" x="0" y="0" viewBox="0 0 64 64" style="enable-background:new 0 0 512 512" xml:space="preserve"><g><g xmlns="http://www.w3.org/2000/svg"><path d="m62.22 46c.48-.532.78-1.229.78-2 0-1.654-1.346-3-3-3h-1v-7c0-1.654-1.346-3-3-3h-3v-23c0-1.654-1.346-3-3-3h-1v-2c0-1.103-.897-2-2-2h-2c-1.103 0-2 .897-2 2v2h-2v-2c0-1.103-.897-2-2-2h-2c-1.103 0-2 .897-2 2v2h-6v-2c0-1.103-.897-2-2-2h-2c-1.103 0-2 .897-2 2v2h-2v-2c0-1.103-.897-2-2-2h-2c-1.103 0-2 .897-2 2v2h-1c-1.654 0-3 1.346-3 3v16.059c-4.493.5-8 4.317-8 8.941 0 2.826 1.312 5.349 3.356 7h-5.356v16h25c.754 0 1.435-.289 1.963-.75l2.769 2.215c1.236.99 2.789 1.535 4.372 1.535h1.896v1c0 1.654 1.346 3 3 3h16c1.654 0 3-1.346 3-3v-1h1c1.654 0 3-1.346 3-3 0-.771-.301-1.468-.78-2 .48-.532.78-1.229.78-2s-.301-1.468-.78-2c.48-.532.78-1.229.78-2s-.301-1.468-.78-2zm-17.22-43h2l.001 6h-2.001zm-8 0h2l.001 6h-2.001zm-12 0h2l.001 6h-2.001zm-8 0h2l.001 6h-2.001zm-4 5c0-.551.449-1 1-1h1v2c0 1.103.897 2 2 2h2c1.103 0 2-.897 2-2v-2h2v2c0 1.103.897 2 2 2h2c1.103 0 2-.897 2-2v-2h6v2c0 1.103.897 2 2 2h2c1.103 0 2-.897 2-2v-2h2v2c0 1.103.897 2 2 2h2c1.103 0 2-.897 2-2v-2h1c.551 0 1 .449 1 1v5h-38zm0 7h38v16h-2v-14h-34v7.525c-.638-.227-1.306-.389-2-.466zm28 16v-12h6v12zm4 2v4h-2v-4zm-6 1c0-.551.449-1 1-1h1v4h-2zm-2 0v3h-1.896c-.718 0-1.426.126-2.104.341v-18.341h6v12.184c-1.161.414-2 1.514-2 2.816zm-32-1c0-3.86 3.14-7 7-7s7 3.14 7 7-3.14 7-7 7-7-3.14-7-7zm12 21h-14v-12h14zm4-21c0-3.113-1.59-5.861-4-7.478v-6.522h6v21h-5.356c2.044-1.651 3.356-4.174 3.356-7zm0 21h-2v-12h2zm6-1c0 .551-.449 1-1 1h-3v-12h3c.551 0 1 .449 1 1zm-1-13h-1v-21h6v19.355c-.087.063-.184.112-.268.179l-2.769 2.215c-.528-.46-1.209-.749-1.963-.749zm15 21h-1c-.551 0-1-.449-1-1v-1-2-13.586l.414-.414h1.586zm4 0h-2v-18h1c.347 0 .678-.058 1-.142zm-1-20h-5.414l-1.536 1.536c-.944.944-2.2 1.464-3.535 1.464h-.515v2h.515c1.244 0 2.436-.329 3.485-.934v11.934h-1.896c-1.131 0-2.24-.389-3.124-1.096l-3.03-2.424c.027-.157.05-.315.05-.48v-10c0-.165-.023-.323-.049-.481l3.03-2.424c.884-.706 1.993-1.095 3.123-1.095h10.896c0 1.103-.897 2-2 2zm13 19c0 .551-.449 1-1 1h-9v-19.382c.615-.703 1-1.612 1-2.618 0-.737-.405-1.375-1-1.722v-4.278h9c.551 0 1 .449 1 1zm3-3h-1v-2h1c.551 0 1 .449 1 1s-.449 1-1 1zm0-4h-1v-2h1c.551 0 1 .449 1 1s-.449 1-1 1zm0-4h-1v-2h1c.551 0 1 .449 1 1s-.449 1-1 1zm0-4h-1v-2h1c.551 0 1 .449 1 1s-.449 1-1 1z" fill="#ffffff" data-original="#000000" style=""/><path d="m52 35c-1.654 0-3 1.346-3 3s1.346 3 3 3 3-1.346 3-3-1.346-3-3-3zm0 4c-.551 0-1-.449-1-1s.449-1 1-1 1 .449 1 1-.449 1-1 1z" fill="#ffffff" data-original="#000000" style=""/><path d="m53 53h2v6h-2z" fill="#ffffff" data-original="#000000" style=""/><path d="m49 53h2v6h-2z" fill="#ffffff" data-original="#000000" style=""/><path d="m16.707 30.707-1.414-1.414-5.293 5.293-1.293-1.293-1.414 1.414 2.707 2.707z" fill="#ffffff" data-original="#000000" style=""/></g></g></svg>
