<?xml version="1.0" encoding="utf-8"?>
<!-- Generator: Adobe Illustrator 19.0.0, SVG Export Plug-In . SVG Version: 6.00 Build 0)  -->
<svg xmlns="http://www.w3.org/2000/svg" xmlns:xlink="http://www.w3.org/1999/xlink" version="1.1" id="Layer_1" x="0px" y="0px" viewBox="0 2 98 98" style="enable-background:new 0 2 98 98;" xml:space="preserve" width="512" height="512">
<style type="text/css">
	.st0{fill:url(#SVGID_1_);}
	.st1{fill:url(#SVGID_2_);}
</style>
<g>
	<linearGradient id="SVGID_1_" gradientUnits="userSpaceOnUse" x1="64.4" y1="11.6667" x2="64.4" y2="89.3736">
		<stop offset="0" style="stop-color:#00EFD1"/>
		<stop offset="1" style="stop-color:#00ACEA"/>
	</linearGradient>
	<path class="st0" d="M88.7,15.6c0-0.1-0.1-0.2-0.1-0.3c0-0.1-0.1-0.2-0.1-0.3s-0.1-0.2-0.2-0.3c0-0.1-0.1-0.1-0.1-0.2   c-0.2-0.3-0.5-0.6-0.8-0.8c-0.1,0-0.1-0.1-0.2-0.1c-0.1-0.1-0.2-0.1-0.3-0.2c-0.1,0-0.2-0.1-0.3-0.1c-0.1,0-0.2-0.1-0.3-0.1   c-0.2,0-0.4-0.1-0.6-0.1H64.1c-1.7,0-3,1.3-3,3c0,1.7,1.3,3,3,3h14.5L40.9,56.9c-1.2,1.2-1.2,3.1,0,4.2c0.6,0.6,1.4,0.9,2.1,0.9   s1.5-0.3,2.1-0.9l37.7-37.7v14.5c0,1.7,1.3,3,3,3c1.7,0,3-1.3,3-3V16.2C88.8,16,88.8,15.8,88.7,15.6z"/>
	<linearGradient id="SVGID_2_" gradientUnits="userSpaceOnUse" x1="43.9" y1="11.6667" x2="43.9" y2="89.3736">
		<stop offset="0" style="stop-color:#00EFD1"/>
		<stop offset="1" style="stop-color:#00ACEA"/>
	</linearGradient>
	<path class="st1" d="M75.6,50.5c-1.7,0-3,1.3-3,3v33.3H15.2V29.4h33.3c1.7,0,3-1.3,3-3c0-1.7-1.3-3-3-3H12.2c-1.7,0-3,1.3-3,3v63.4   c0,1.7,1.3,3,3,3h63.4c1.7,0,3-1.3,3-3V53.5C78.6,51.8,77.3,50.5,75.6,50.5z"/>
</g>
</svg>
