<?xml version="1.0"?>
<svg xmlns="http://www.w3.org/2000/svg" xmlns:xlink="http://www.w3.org/1999/xlink" xmlns:svgjs="http://svgjs.com/svgjs" version="1.1" width="512" height="512" x="0" y="0" viewBox="0 0 480 480" style="enable-background:new 0 0 512 512" xml:space="preserve"><g>
<g xmlns="http://www.w3.org/2000/svg">
	<g>
		<path d="M456.904,386.856C466.176,378.104,472,365.728,472,352c0-26.472-21.528-48-48-48s-48,21.528-48,48    c0,13.728,5.824,26.104,15.096,34.856C376.808,397.224,368,413.752,368,432v40c0,4.416,3.584,8,8,8h96c4.416,0,8-3.584,8-8v-40    C480,413.752,471.192,397.224,456.904,386.856z M424,320c17.648,0,32,14.352,32,32c0,12.408-7.176,23.072-17.52,28.376    c-0.024,0.016-0.064,0.008-0.088,0.024c-9.408,4.784-19.376,4.784-28.784,0c-0.024-0.016-0.064-0.008-0.088-0.024    C399.168,375.072,392,364.408,392,352C392,334.352,406.352,320,424,320z M464,464h-80v-32c0-15.184,8.464-28.8,21.816-35.6    c5.616,2.304,11.752,3.6,18.184,3.6s12.568-1.296,18.184-3.6C455.536,403.2,464,416.816,464,432V464z" fill="#ffffff" data-original="#000000" style=""/>
	</g>
</g>
<g xmlns="http://www.w3.org/2000/svg">
	<g>
		<path d="M272.904,386.856C282.176,378.104,288,365.728,288,352c0-26.472-21.528-48-48-48s-48,21.528-48,48    c0,13.728,5.824,26.104,15.096,34.856C192.808,397.224,184,413.752,184,432v40c0,4.416,3.584,8,8,8h96c4.416,0,8-3.584,8-8v-40    C296,413.752,287.192,397.224,272.904,386.856z M240,320c17.648,0,32,14.352,32,32c0,12.408-7.176,23.072-17.52,28.376    c-0.024,0.016-0.064,0.008-0.088,0.024c-9.408,4.784-19.376,4.784-28.784,0c-0.024-0.016-0.064-0.008-0.088-0.024    C215.176,375.072,208,364.408,208,352C208,334.352,222.352,320,240,320z M280,464h-80v-32c0-15.184,8.464-28.8,21.816-35.6    c5.616,2.304,11.752,3.6,18.184,3.6s12.568-1.296,18.184-3.6C271.536,403.2,280,416.816,280,432V464z" fill="#ffffff" data-original="#000000" style=""/>
	</g>
</g>
<g xmlns="http://www.w3.org/2000/svg">
	<g>
		<path d="M88.904,386.856C98.176,378.104,104,365.728,104,352c0-26.472-21.528-48-48-48S8,325.528,8,352    c0,13.728,5.824,26.104,15.096,34.856C8.808,397.224,0,413.752,0,432v40c0,4.416,3.584,8,8,8h96c4.416,0,8-3.584,8-8v-40    C112,413.752,103.192,397.224,88.904,386.856z M56,320c17.648,0,32,14.352,32,32c0,12.408-7.168,23.064-17.52,28.376    c-0.024,0.016-0.064,0.008-0.088,0.024c-9.408,4.784-19.376,4.784-28.784,0c-0.024-0.016-0.064-0.008-0.088-0.024    C31.176,375.064,24,364.408,24,352C24,334.352,38.352,320,56,320z M96,464H16v-32c0-15.184,8.464-28.8,21.816-35.6    C43.432,398.704,49.568,400,56,400s12.568-1.296,18.184-3.6C87.536,403.2,96,416.816,96,432V464z" fill="#ffffff" data-original="#000000" style=""/>
	</g>
</g>
<g xmlns="http://www.w3.org/2000/svg">
	<g>
		<path d="M284.64,109.776C296.56,98.144,304,81.936,304,64c0-35.288-28.712-64-64-64c-35.288,0-64,28.712-64,64    c0,17.936,7.44,34.144,19.36,45.776C173.576,124.504,160,149.336,160,176v40c0,4.416,3.584,8,8,8h144c4.416,0,8-3.584,8-8v-40    C320,149.336,306.424,124.504,284.64,109.776z M192,64c0-26.472,21.528-48,48-48s48,21.528,48,48    c0,16.904-8.808,31.768-22.048,40.32c-1.848,1.192-3.768,2.256-5.752,3.168c-0.056,0.024-0.104,0.056-0.16,0.08    c-12.592,5.712-27.472,5.712-40.064,0c-0.056-0.024-0.104-0.056-0.16-0.08c-1.984-0.912-3.904-1.968-5.752-3.168    C200.808,95.768,192,80.904,192,64z M304,208H176v-32c0-23.24,12.864-44.776,33.112-55.976c0.016,0.008,0.032,0.016,0.04,0.024    c2.288,1.256,4.672,2.36,7.112,3.336c0.16,0.064,0.32,0.112,0.48,0.176c7.224,2.832,15.048,4.44,23.256,4.44    s16.032-1.608,23.256-4.44c0.16-0.064,0.32-0.112,0.48-0.176c2.44-0.976,4.824-2.08,7.112-3.344    c0.016-0.008,0.032-0.016,0.04-0.024C291.136,131.224,304,152.76,304,176V208z" fill="#ffffff" data-original="#000000" style=""/>
	</g>
</g>
<g xmlns="http://www.w3.org/2000/svg">
	<g>
		<path d="M424,256H248v-16h-16v16H56c-4.416,0-8,3.584-8,8v24h16v-16h168v16h16v-16h168v16h16v-24C432,259.584,428.416,256,424,256    z" fill="#ffffff" data-original="#000000" style=""/>
	</g>
</g>
<g xmlns="http://www.w3.org/2000/svg">
	<g>
		<polygon points="216,144 216,160 232,160 232,192 248,192 248,160 264,160 264,144   " fill="#ffffff" data-original="#000000" style=""/>
	</g>
</g>
<g xmlns="http://www.w3.org/2000/svg">
</g>
<g xmlns="http://www.w3.org/2000/svg">
</g>
<g xmlns="http://www.w3.org/2000/svg">
</g>
<g xmlns="http://www.w3.org/2000/svg">
</g>
<g xmlns="http://www.w3.org/2000/svg">
</g>
<g xmlns="http://www.w3.org/2000/svg">
</g>
<g xmlns="http://www.w3.org/2000/svg">
</g>
<g xmlns="http://www.w3.org/2000/svg">
</g>
<g xmlns="http://www.w3.org/2000/svg">
</g>
<g xmlns="http://www.w3.org/2000/svg">
</g>
<g xmlns="http://www.w3.org/2000/svg">
</g>
<g xmlns="http://www.w3.org/2000/svg">
</g>
<g xmlns="http://www.w3.org/2000/svg">
</g>
<g xmlns="http://www.w3.org/2000/svg">
</g>
<g xmlns="http://www.w3.org/2000/svg">
</g>
</g></svg>
