<svg height="511pt" viewBox="1 -26 511.99932 511" width="511pt" xmlns="http://www.w3.org/2000/svg"><g fill="#ff7956"><path d="m480 294.324219c0 26.507812-21.492188 48-48 48h-377.375l63.199219-63.199219-22.625-22.625-90.511719 90.511719c-6.246094 6.246093-6.246094 16.375 0 22.625l90.511719 90.511719 22.625-22.625-63.199219-63.199219h377.375c44.160156-.054688 79.945312-35.839844 80-80v-64h-32zm0 0"/><path d="m32 166.324219c0-26.511719 21.488281-48 48-48h377.375l-63.199219 63.199219 22.625 22.625 90.511719-90.511719c6.246094-6.25 6.246094-16.378907 0-22.625l-90.511719-90.511719-22.625 22.625 63.199219 63.199219h-377.375c-44.160156.050781-79.9453125 35.839843-80 80v64h32zm0 0"/></g></svg>